<svg width="24" height="25" viewBox="0 0 24 25" fill="none" xmlns="http://www.w3.org/2000/svg">
<g id="Linkedin">
<path id="Vector" d="M20.4701 2.51381H3.53006C3.33964 2.51117 3.15056 2.54606 2.97362 2.6165C2.79669 2.68693 2.63536 2.79153 2.49886 2.92432C2.36235 3.05711 2.25334 3.2155 2.17805 3.39042C2.10276 3.56535 2.06267 3.75339 2.06006 3.94381V21.0838C2.06267 21.2742 2.10276 21.4623 2.17805 21.6372C2.25334 21.8121 2.36235 21.9705 2.49886 22.1033C2.63536 22.2361 2.79669 22.3407 2.97362 22.4111C3.15056 22.4816 3.33964 22.5165 3.53006 22.5138H20.4701C20.6605 22.5165 20.8496 22.4816 21.0265 22.4111C21.2034 22.3407 21.3648 22.2361 21.5013 22.1033C21.6378 21.9705 21.7468 21.8121 21.8221 21.6372C21.8974 21.4623 21.9375 21.2742 21.9401 21.0838V3.94381C21.9375 3.75339 21.8974 3.56535 21.8221 3.39042C21.7468 3.2155 21.6378 3.05711 21.5013 2.92432C21.3648 2.79153 21.2034 2.68693 21.0265 2.6165C20.8496 2.54606 20.6605 2.51117 20.4701 2.51381ZM8.09006 19.2538H5.09006V10.2538H8.09006V19.2538ZM6.59006 8.99381C6.17632 8.99381 5.77953 8.82945 5.48697 8.5369C5.19442 8.24434 5.03006 7.84755 5.03006 7.43381C5.03006 7.02007 5.19442 6.62328 5.48697 6.33072C5.77953 6.03817 6.17632 5.87381 6.59006 5.87381C6.80975 5.8489 7.03224 5.87067 7.24293 5.93769C7.45363 6.00472 7.6478 6.1155 7.81272 6.26277C7.97763 6.41004 8.10959 6.59049 8.19993 6.79229C8.29028 6.9941 8.33698 7.21271 8.33698 7.43381C8.33698 7.65491 8.29028 7.87353 8.19993 8.07533C8.10959 8.27713 7.97763 8.45758 7.81272 8.60485C7.6478 8.75212 7.45363 8.8629 7.24293 8.92993C7.03224 8.99696 6.80975 9.01873 6.59006 8.99381ZM18.9101 19.2538H15.9101V14.4238C15.9101 13.2138 15.4801 12.4238 14.3901 12.4238C14.0527 12.4263 13.7242 12.5321 13.4489 12.727C13.1735 12.9219 12.9645 13.1965 12.8501 13.5138C12.7718 13.7489 12.7379 13.9964 12.7501 14.2438V19.2438H9.75006C9.75006 19.2438 9.75006 11.0638 9.75006 10.2438H12.7501V11.5138C13.0226 11.0409 13.419 10.6513 13.8965 10.387C14.374 10.1227 14.9146 9.99366 15.4601 10.0138C17.4601 10.0138 18.9101 11.3038 18.9101 14.0738V19.2538Z" fill="white"/>
</g>
</svg>
