<svg width="24" height="25" viewBox="0 0 24 25" fill="none" xmlns="http://www.w3.org/2000/svg">
<g id="Twitter" clip-path="url(#clip0_28_330)">
<path id="Vector" d="M12 0.513672C5.37281 0.513672 0 5.88648 0 12.5137C0 19.1409 5.37281 24.5137 12 24.5137C18.6272 24.5137 24 19.1409 24 12.5137C24 5.88648 18.6272 0.513672 12 0.513672Z" fill="white"/>
<path id="Vector_2" d="M13.3128 11.4279L18.4499 5.45654H17.2326L12.7721 10.6414L9.20949 5.45654H5.10046L10.4878 13.297L5.10046 19.559H6.31785L11.0283 14.0835L14.7906 19.559H18.8996L13.3125 11.4279H13.3128ZM6.75648 6.37298H8.62631L17.2331 18.6842H15.3633L6.75648 6.37298Z" fill="#524E4C"/>
</g>
<defs>
<clipPath id="clip0_28_330">
<rect width="24" height="24" fill="white" transform="translate(0 0.513672)"/>
</clipPath>
</defs>
</svg>
